<svg width="24" height="22" viewBox="0 0 24 22" fill="none" xmlns="http://www.w3.org/2000/svg">
<path d="M5.01899 3.30917C5.10233 2.48495 5.83749 1.88972 6.66101 1.97969L20.5782 3.50021C21.4017 3.59018 22.0018 4.33128 21.9184 5.15551L20.8118 16.0997C20.7285 16.9239 19.9933 17.5192 19.1698 17.4292L5.25263 15.9087C4.4291 15.8187 3.82906 15.0776 3.9124 14.2534L5.01899 3.30917Z" stroke="#EFEFEF"/>
<path d="M1.88354 7.6806C1.88354 6.85218 2.55512 6.1806 3.38354 6.1806H17.3835C18.212 6.1806 18.8835 6.85218 18.8835 7.6806V18.6806C18.8835 19.509 18.212 20.1806 17.3835 20.1806H3.38354C2.55512 20.1806 1.88354 19.509 1.88354 18.6806V7.6806Z" fill="#222222" stroke="#EFEFEF"/>
<path d="M10.8257 11.4311C10.8257 10.6027 11.4973 9.93109 12.3257 9.93109C13.1541 9.93109 13.8257 10.6027 13.8257 11.4311C13.8257 12.2595 13.1541 12.9311 12.3257 12.9311C11.4973 12.9311 10.8257 12.2595 10.8257 11.4311Z" stroke="#EFEFEF" stroke-width="0.5"/>
<path d="M1.59595 17.0069L5.51858 13.7985C6.31138 13.15 7.46594 13.2053 8.19317 13.9265L10.5231 16.2373C11.1965 16.905 12.2463 17.0081 13.0367 16.4841L18.5959 12.7983" stroke="#EFEFEF"/>
</svg>
