<svg width="46" height="28" viewBox="0 0 46 28" fill="none" xmlns="http://www.w3.org/2000/svg">
<path d="M1 27.4049C13.4078 27.4049 36.6504 27.4049 45 27.4049" stroke="#EA5A0A" stroke-linecap="round" stroke-linejoin="round"/>
<path d="M22.4635 7.43902C24.2416 7.43902 25.683 5.99762 25.683 4.21951C25.683 2.44141 24.2416 1 22.4635 1C20.6854 1 19.244 2.44141 19.244 4.21951C19.244 5.99762 20.6854 7.43902 22.4635 7.43902Z" stroke="#EA5A0A" stroke-linecap="round" stroke-linejoin="round"/>
<path d="M4.40622 27.8293C4.28227 27.0342 4.21985 26.2314 4.21948 25.4272C4.21948 15.4928 12.6277 7.43903 23 7.43903C33.3723 7.43903 41.7805 15.4928 41.7805 25.4272C41.7805 26.195 41.7304 27.0874 41.6321 27.8293H4.40622Z" fill="#EA5A0A"/>
</svg>
