<svg width="16" height="16" viewBox="0 0 16 16" fill="none" xmlns="http://www.w3.org/2000/svg">
<path d="M1.52381 15.1532C1.10476 15.1532 0.746159 15.005 0.448 14.7085C0.149841 14.412 0.000507936 14.0551 0 13.6379V3.03064C0 2.61393 0.149333 2.25732 0.448 1.96083C0.746667 1.66433 1.10527 1.51583 1.52381 1.51532H2.28571V0.75766C2.28571 0.54299 2.35886 0.363172 2.50514 0.218206C2.65143 0.0732406 2.83225 0.000505107 3.04762 0C3.26349 0 3.44457 0.0727355 3.59086 0.218206C3.73714 0.363677 3.81003 0.543495 3.80952 0.75766V1.51532H9.90476V0.75766C9.90476 0.54299 9.9779 0.363172 10.1242 0.218206C10.2705 0.0732406 10.4513 0.000505107 10.6667 0C10.8825 0 11.0636 0.0727355 11.2099 0.218206C11.3562 0.363677 11.4291 0.543495 11.4286 0.75766V1.51532H12.1905C12.6095 1.51532 12.9684 1.66382 13.267 1.96083C13.5657 2.25783 13.7148 2.61443 13.7143 3.03064V6.5727C13.7143 6.78737 13.6411 6.96745 13.4949 7.11292C13.3486 7.25839 13.1677 7.33087 12.9524 7.33036C12.7365 7.33036 12.5557 7.25763 12.4099 7.11216C12.2641 6.96669 12.191 6.78712 12.1905 6.57346V6.06128H1.52381V13.6379H5.94286C6.15873 13.6379 6.33981 13.7106 6.48609 13.8561C6.63238 14.0016 6.70527 14.1814 6.70476 14.3955C6.70476 14.6102 6.63162 14.7903 6.48533 14.9358C6.33905 15.0812 6.15822 15.1537 5.94286 15.1532H1.52381ZM11.4286 15.9109C10.3746 15.9109 9.47632 15.5414 8.73371 14.8024C7.99111 14.0634 7.61956 13.1702 7.61905 12.1226C7.61905 11.0745 7.9906 10.1812 8.73371 9.44272C9.47683 8.70426 10.3751 8.33477 11.4286 8.33426C12.4825 8.33426 13.3811 8.70375 14.1242 9.44272C14.8673 10.1817 15.2386 11.075 15.2381 12.1226C15.2381 13.1707 14.8665 14.0642 14.1234 14.8032C13.3803 15.5421 12.482 15.9114 11.4286 15.9109ZM11.8095 11.971V10.2284C11.8095 10.1274 11.7714 10.039 11.6952 9.96323C11.619 9.88747 11.5302 9.84959 11.4286 9.84959C11.327 9.84959 11.2381 9.88747 11.1619 9.96323C11.0857 10.039 11.0476 10.1274 11.0476 10.2284V11.9521C11.0476 12.0531 11.0667 12.1511 11.1048 12.2461C11.1429 12.341 11.2 12.4261 11.2762 12.5014L12.4381 13.6568C12.5143 13.7326 12.6032 13.7705 12.7048 13.7705C12.8063 13.7705 12.8952 13.7326 12.9714 13.6568C13.0476 13.5811 13.0857 13.4927 13.0857 13.3916C13.0857 13.2906 13.0476 13.2022 12.9714 13.1265L11.8095 11.971Z" fill="#EFEFEF"/>
</svg>
