<svg width="18" height="18" viewBox="0 0 18 18" fill="none" xmlns="http://www.w3.org/2000/svg">
<path d="M1.72389 17.1429C1.24982 17.1429 0.844131 16.9751 0.506823 16.6397C0.169516 16.3043 0.00057463 15.9006 0 15.4286V3.42857C0 2.95714 0.168941 2.55371 0.506823 2.21829C0.844706 1.88286 1.25039 1.71486 1.72389 1.71429H2.58583V0.857143C2.58583 0.614286 2.66858 0.410857 2.83407 0.246857C2.99957 0.0828572 3.20413 0.000571429 3.44778 0C3.692 0 3.89685 0.0822858 4.06234 0.246857C4.22784 0.411429 4.3103 0.614857 4.30972 0.857143V1.71429H11.2053V0.857143C11.2053 0.614286 11.288 0.410857 11.4535 0.246857C11.619 0.0828572 11.8236 0.000571429 12.0672 0C12.3114 0 12.5163 0.0822858 12.6818 0.246857C12.8473 0.411429 12.9297 0.614857 12.9292 0.857143V1.71429H13.7911C14.2652 1.71429 14.6712 1.88229 15.009 2.21829C15.3469 2.55429 15.5156 2.95771 15.515 3.42857V7.43571C15.515 7.67857 15.4323 7.88229 15.2668 8.04686C15.1013 8.21143 14.8967 8.29343 14.6531 8.29286C14.4088 8.29286 14.2043 8.21057 14.0394 8.046C13.8744 7.88143 13.7917 7.67829 13.7911 7.43657V6.85714H1.72389V15.4286H6.72317C6.96738 15.4286 7.17224 15.5109 7.33773 15.6754C7.50323 15.84 7.58569 16.0434 7.58511 16.2857C7.58511 16.5286 7.50236 16.7323 7.33687 16.8969C7.17138 17.0614 6.96681 17.1434 6.72317 17.1429H1.72389ZM12.9292 18C11.7368 18 10.7206 17.582 9.88047 16.746C9.04036 15.91 8.62002 14.8994 8.61944 13.7143C8.61944 12.5286 9.03979 11.518 9.88047 10.6826C10.7212 9.84714 11.7374 9.42914 12.9292 9.42857C14.1215 9.42857 15.138 9.84657 15.9787 10.6826C16.8194 11.5186 17.2395 12.5291 17.2389 13.7143C17.2389 14.9 16.8185 15.9109 15.9779 16.7469C15.1372 17.5829 14.1209 18.0006 12.9292 18ZM13.3601 13.5429V11.5714C13.3601 11.4571 13.317 11.3571 13.2308 11.2714C13.1447 11.1857 13.0441 11.1429 12.9292 11.1429C12.8142 11.1429 12.7137 11.1857 12.6275 11.2714C12.5413 11.3571 12.4982 11.4571 12.4982 11.5714V13.5214C12.4982 13.6357 12.5197 13.7466 12.5628 13.854C12.6059 13.9614 12.6706 14.0577 12.7568 14.1429L14.0712 15.45C14.1574 15.5357 14.258 15.5786 14.3729 15.5786C14.4878 15.5786 14.5884 15.5357 14.6746 15.45C14.7608 15.3643 14.8039 15.2643 14.8039 15.15C14.8039 15.0357 14.7608 14.9357 14.6746 14.85L13.3601 13.5429Z" fill="#EA5A0A"/>
</svg>
