<svg width="22" height="22" viewBox="0 0 22 22" fill="none" xmlns="http://www.w3.org/2000/svg">
<path d="M11 20C15.9706 20 20 15.9706 20 11C20 6.02943 15.9706 2 11 2C6.02943 2 2 6.02943 2 11C2 15.9706 6.02943 20 11 20Z" stroke="#EFEFEF" stroke-linecap="round" stroke-linejoin="round"/>
<path d="M2 11H20" stroke="#EFEFEF" stroke-linecap="round" stroke-linejoin="round"/>
<path d="M10.9999 20C12.9881 20 14.5999 15.9706 14.5999 11C14.5999 6.02943 12.9881 2 10.9999 2C9.01167 2 7.3999 6.02943 7.3999 11C7.3999 15.9706 9.01167 20 10.9999 20Z" stroke="#EFEFEF" stroke-linecap="round" stroke-linejoin="round"/>
<path d="M4.63599 4.76392C6.26467 6.3926 8.51467 7.39997 10.9999 7.39997C13.4852 7.39997 15.7352 6.3926 17.3639 4.76392" stroke="#EFEFEF" stroke-linecap="round" stroke-linejoin="round"/>
<path d="M17.3639 17.236C15.7352 15.6073 13.4852 14.6 10.9999 14.6C8.51467 14.6 6.26467 15.6073 4.63599 17.236" stroke="#EFEFEF" stroke-linecap="round" stroke-linejoin="round"/>
</svg>
