<svg width="23" height="22" viewBox="0 0 23 22" fill="none" xmlns="http://www.w3.org/2000/svg">
<g clip-path="url(#clip0_1025_23)">
<g clip-path="url(#clip1_1025_23)">
<path d="M11.125 12.75C13.75 12.75 18.125 16.25 18.125 16.25V2.25C18.125 2.25 13.75 5.75 11.125 5.75M11.125 12.75V5.75M11.125 12.75H6.75C4.81712 12.75 3.25 11.9721 3.25 9.25C3.25 6.52787 4.81712 5.75 6.75 5.75H11.125M5.875 12.75L8.5 19.75H12L9.375 12.75M18.125 11.875C18.4697 11.875 18.8111 11.8071 19.1295 11.6752C19.448 11.5433 19.7374 11.3499 19.9812 11.1062C20.2249 10.8624 20.4183 10.573 20.5502 10.2545C20.6821 9.93606 20.75 9.59472 20.75 9.25C20.75 8.90528 20.6821 8.56394 20.5502 8.24546C20.4183 7.92698 20.2249 7.6376 19.9812 7.39384C19.7374 7.15009 19.448 6.95673 19.1295 6.82482C18.8111 6.6929 18.4697 6.625 18.125 6.625M11.125 16.25C12 16.25 13.75 15.375 13.75 13.625" stroke="#EFEFEF" stroke-linejoin="round"/>
</g>
</g>
<defs>
<clipPath id="clip0_1025_23">
<rect width="22" height="22" fill="white" transform="matrix(0 1 -1 0 22.8408 0)"/>
</clipPath>
<clipPath id="clip1_1025_23">
<rect width="22" height="22" fill="white" transform="translate(0.84082)"/>
</clipPath>
</defs>
</svg>
