<svg width="21" height="21" viewBox="0 0 21 21" fill="none" xmlns="http://www.w3.org/2000/svg">
<path d="M20.2786 16.7086C17.917 15.7276 17.8272 11.5168 17.8254 11.4106V8.58565C17.8254 5.86681 16.0192 3.52889 13.4525 2.53344C13.447 1.13561 12.2093 0 10.6885 0C9.16762 0 7.92994 1.13567 7.92439 2.53337C5.3578 3.52883 3.55155 5.86674 3.55155 8.58558V11.4105C3.54988 11.5167 3.45998 15.7275 1.0983 16.7085C0.829268 16.8203 0.681407 17.0897 0.743609 17.3551C0.805738 17.6206 1.06097 17.8102 1.35622 17.8102H7.34329C7.46602 18.4313 7.78528 19.009 8.27356 19.477C8.92208 20.0985 9.77973 20.4408 10.6884 20.4408C11.5971 20.4408 12.4547 20.0985 13.1032 19.477C13.5915 19.009 13.9108 18.4312 14.0334 17.8102H20.0205C20.3157 17.8102 20.5709 17.6207 20.6331 17.3551C20.6954 17.0897 20.5476 16.8203 20.2786 16.7086ZM17.1677 14.6914C17.4159 15.3837 17.7675 16.0789 18.2659 16.6575H3.11091C3.60933 16.079 3.96086 15.3838 4.20912 14.6914H17.1677ZM10.6885 1.15281C11.3764 1.15281 11.958 1.57799 12.14 2.15755C11.6712 2.06811 11.1857 2.02094 10.6885 2.02094C10.1912 2.02094 9.70576 2.06807 9.23691 2.15755C9.41894 1.57802 10.0006 1.15281 10.6885 1.15281ZM4.80485 11.414V8.58555C4.80485 5.60148 7.4442 3.17375 10.6885 3.17375C13.9327 3.17375 16.5721 5.60148 16.5721 8.58555V11.4188C16.5729 11.5055 16.5876 12.4167 16.8373 13.5385H4.53952C4.78935 12.4156 4.80409 11.5028 4.80485 11.414ZM10.6885 19.2881C9.73198 19.2881 8.89721 18.6538 8.62927 17.8103H12.7476C12.4796 18.6538 11.645 19.2881 10.6885 19.2881Z" fill="#EFEFEF"/>
<path d="M10.6884 3.98248C7.99231 3.98248 5.79883 6.00002 5.79883 8.47995C5.79883 8.79829 6.07941 9.05637 6.4255 9.05637C6.77158 9.05637 7.05216 8.79829 7.05216 8.47995C7.05216 6.63569 8.68339 5.13529 10.6885 5.13529C11.0346 5.13529 11.3152 4.87721 11.3152 4.55887C11.3151 4.2405 11.0345 3.98248 10.6884 3.98248Z" fill="#EFEFEF"/>
</svg>
