<svg width="31" height="30" viewBox="0 0 31 30" fill="none" xmlns="http://www.w3.org/2000/svg">
<path d="M5.00842 11.25L9.2717 9.84375L11.5798 14.227L8.77764 17.9203L4.3667 15L5.00842 11.25ZM21.0434 5.14406L17.5386 7.36266L12.7489 6.76875L10.3808 5.04844C12.087 4.00781 13.4792 3.75 15.6167 3.75C17.773 3.75 19.3325 4.08469 21.0434 5.14406ZM18.1245 25.9641C16.264 26.3967 11.5798 26.3902 8.36186 23.8992L10.5275 22.0898L15.8665 23.4961L18.1245 25.9641ZM23.2198 14.0344V18.3984L18.012 19.6031L16.5026 15.2859L19.3151 11.4422L23.2198 14.0344Z" fill="#EA5A0A"/>
<path d="M26.8665 15C26.8667 17.4766 26.0495 19.8839 24.5417 21.8486C23.0339 23.8132 20.9198 25.2253 18.5274 25.8656C17.5786 26.1228 16.5996 26.252 15.6165 26.25C13.3924 26.2494 11.2184 25.5893 9.36938 24.3532C7.52037 23.1172 6.07936 21.3606 5.22853 19.3057C4.3777 17.2508 4.15525 14.9897 4.58931 12.8084C5.02338 10.627 6.09446 8.62334 7.66714 7.05065C9.23982 5.47797 11.2435 4.40689 13.4248 3.97283C15.6062 3.53877 17.8673 3.76121 19.9222 4.61204C21.9771 5.46287 23.7337 6.90389 24.9697 8.7529C26.2058 10.6019 26.8658 12.7759 26.8665 15Z" stroke="#EA5A0A" stroke-linecap="round" stroke-linejoin="round"/>
<path d="M12.7487 6.76874L9.27148 9.84374L11.5796 14.227L16.5038 15.2845L19.3135 11.4426L17.5379 7.36264L12.7487 6.76874Z" stroke="#EA5A0A" stroke-linecap="round" stroke-linejoin="round"/>
<path d="M23.22 14.0344V18.3984M23.22 14.0344L19.3153 11.4422L16.5028 15.2859L18.0122 19.6031M23.22 14.0344L25.9669 10.5937M23.22 18.3984L18.0122 19.6031M23.22 18.3984L24.7247 21.6M18.0122 19.6031L15.6169 22.9687M17.5383 7.36265L21.0436 5.14406M11.581 14.2266L8.77783 17.9203L10.5277 22.0898L15.6169 22.9687M15.6169 22.9687L18.1247 25.9641M12.7481 6.76874L10.381 5.04843" stroke="#EA5A0A" stroke-linecap="round" stroke-linejoin="round"/>
<path d="M9.27178 9.84375L5.0085 11.25L4.80225 15.2845L8.77959 17.9217M10.5276 22.0898L8.77772 23.9297L8.1074 23.3719" stroke="#EA5A0A" stroke-linecap="round" stroke-linejoin="round"/>
</svg>
